#N canvas 547 362 1012 581 12;
#X declare -path Fraise -path Fraise/pic;
#X obj 35 136 treuil 1 50;
#X obj 35 198 treuil 2 51;
#X obj 36 261 treuil 3 52;
#X obj 36 323 treuil 4 53;
#X obj 36 386 treuil 5 54;
#X obj 36 448 treuil 6 55;
#X obj 600 448 bng 80 250 50 0 TREUIL_STOP TREUIL_STOP TREUILS_STOP 0 -15 0 20 #fc0400 #000000 #000000;
#X obj 801 449 bng 80 250 50 0 TREUIL_REWIND TREUIL_REWIND TREUILS_REWIND 0 -15 0 20 #f8fc00 #000000 #000000;
#X obj 37 21 declare -path Fraise -path Fraise/pic;
#X obj 33 52 pied/pied 1;
#X obj 197 52 fruit/fruit 1 fruit0 0 fwPied;
#X obj 48 549 DMXout 10;
#N canvas 261 40 701 425 test_dmx_input 0;
#X msg 132 142 200;
#X obj 307 147 fruit/receive fruit0;
#X listbox 307 197 20 0 0 0 - - - 0;
#X obj 132 108 metro 100;
#X obj 132 80 tgl 20 0 empty empty empty 0 -10 0 12 #fcfcfc #000000 #000000 0 1;
#X msg 71 121 100;
#X obj 132 187 fruit/send2 fruit0;
#X obj 307 228 bng 20 250 50 0 empty empty empty 0 -10 0 12 #fcfcfc #000000 #000000;
#X obj 545 211 print;
#X msg 57 194 120;
#X msg 236 131 121;
#X msg 239 82 122 i 1000 1001 1002 1003;
#X listbox 353 221 20 0 0 0 - - - 0;
#X obj 354 248 bng 20 250 50 0 empty empty empty 0 -10 0 12 #fcfcfc #000000 #000000;
#X text 243 59 set scratchs;
#X text 236 113 get scratchs;
#X text 69 101 panic;
#X text 51 177 get reset;
#X obj 307 172 route dmx scratchs dest pwm l;
#X connect 0 0 6 0;
#X connect 1 0 18 0;
#X connect 2 0 7 0;
#X connect 3 0 0 0;
#X connect 4 0 3 0;
#X connect 5 0 6 0;
#X connect 9 0 6 0;
#X connect 10 0 6 0;
#X connect 11 0 6 0;
#X connect 12 0 13 0;
#X connect 18 0 2 0;
#X connect 18 1 12 0;
#X connect 18 5 8 0;
#X restore 220 548 pd test_dmx_input;
#N canvas 877 41 606 542 test_dest 1;
#X obj 132 187 fruit/send2 fruit0;
#X obj 102 38 hradio 19 1 0 16 empty empty empty 0 -10 0 12 #fcfcfc #000000 #000000 0;
#X obj 102 62 * 250;
#X msg 392 104 1;
#X msg 431 104 10;
#X obj 323 248 fruit/receive fruit0;
#X obj 323 273 route dest;
#X obj 323 298 route 50;
#X floatatom 323 323 5 0 0 0 - - - 0;
#X obj 283 381 change;
#X obj 283 406 t b b;
#X obj 283 431 timer;
#X floatatom 283 481 5 0 0 0 - - - 0;
#X obj 283 456 zexy/mavg 20;
#X msg 478 102 20;
#X floatatom 392 129 5 0 0 0 - - - 0;
#X msg 519 102 100;
#X msg 554 104 1000;
#X msg 63 296 31 5 i \$1;
#X msg 63 263 -1023;
#X msg 118 263 1023;
#X msg 289 152 40 0 i \$1;
#X floatatom 163 95 5 0 0 0 - - - 0;
#X msg 132 161 30 1 i \$1;
#X msg 220 118 800;
#X msg 181 118 0;
#X msg 312 100 800;
#X msg 273 100 0;
#X msg 392 154 41 0 i \$1;
#X connect 1 0 2 0;
#X connect 2 0 23 0;
#X connect 3 0 15 0;
#X connect 4 0 15 0;
#X connect 5 0 6 0;
#X connect 6 0 7 0;
#X connect 7 0 8 0;
#X connect 7 0 9 0;
#X connect 9 0 10 0;
#X connect 10 0 11 0;
#X connect 10 1 11 1;
#X connect 11 0 13 0;
#X connect 13 0 12 0;
#X connect 14 0 15 0;
#X connect 15 0 28 0;
#X connect 16 0 15 0;
#X connect 17 0 15 0;
#X connect 18 0 0 0;
#X connect 19 0 18 0;
#X connect 20 0 18 0;
#X connect 21 0 0 0;
#X connect 22 0 23 0;
#X connect 23 0 0 0;
#X connect 24 0 23 0;
#X connect 25 0 23 0;
#X connect 26 0 21 0;
#X connect 27 0 21 0;
#X connect 28 0 0 0;
#X restore 364 549 pd test_dest;
#N canvas -4 469 847 482 test_dmx 0;
#X obj 820 268 s 2DMX;
#X msg 820 214 9 \$1;
#X obj 820 79 vsl 15 128 0 255 0 0 empty empty dest 0 -9 0 10 #fcfcfc #000000 #000000 0 1;
#X obj 868 79 vsl 15 128 0 255 0 0 empty empty speed 0 -9 0 10 #fcfcfc #000000 #000000 0 1;
#X msg 868 214 10 \$1;
#X obj 923 80 vsl 15 128 0 255 0 0 empty empty rewind 0 -9 0 10 #fcfcfc #000000 #000000 0 1;
#X obj 971 80 vsl 15 128 0 255 0 0 empty empty fastfw 0 -9 0 10 #fcfcfc #000000 #000000 0 1;
#X msg 923 215 11 \$1;
#X msg 971 215 12 \$1;
#X obj 961 273 / 2.55;
#X floatatom 961 298 5 0 0 0 - - - 0;
#X floatatom 772 216 5 0 0 0 - - - 0;
#X msg 775 156 1;
#X obj 765 32 hradio 20 1 0 8 empty empty empty 0 -10 0 12 #fcfcfc #000000 #000000 0;
#X obj 224 31 rampe 1;
#X obj 433 31 rampe 2;
#X obj 213 308 s 2DMX;
#X obj 18 30 rampe 0;
#X obj 687 395 change;
#X obj 687 420 print;
#X obj 710 353 bng 20 250 50 0 empty empty empty 0 -10 0 12 #fcfcfc #000000 #000000;
#X obj 700 284 print pwm;
#X connect 1 0 0 0;
#X connect 2 0 1 0;
#X connect 2 0 11 0;
#X connect 3 0 4 0;
#X connect 4 0 0 0;
#X connect 5 0 7 0;
#X connect 5 0 9 0;
#X connect 6 0 8 0;
#X connect 7 0 0 0;
#X connect 8 0 0 0;
#X connect 9 0 10 0;
#X connect 12 0 1 0;
#X connect 13 0 2 0;
#X connect 14 0 16 0;
#X connect 15 0 16 0;
#X connect 17 0 16 0;
#X connect 18 0 19 0;
#X connect 20 0 19 0;
#X restore 468 547 pd test_dmx;
#N canvas 88 305 561 509 set_channel 0;
#X obj 105 317 hsl 210 45 0 127 0 0 \$0---bg \$0---bg empty -2 -10 0 12 #fcfcfc #ffffff #000000 0 1;
#X obj 103 171 fruit/send2 fruit0, f 32;
#X obj 103 200 fruit/receive fruit0;
#X msg 324 142 SAVE_EEPROM;
#X msg 63 124 20 101;
#X obj 103 225 route 200;
#X floatatom 103 337 5 0 0 2 start - - 16;
#X msg 194 91 1;
#X text 59 102 get_chan;
#X text 191 54 set_chan;
#X msg 274 60 512;
#X obj 274 85 - 12;
#X obj 103 374 s treuil_start_dmx_chan;
#X obj 64 6 fruit/receive fruit0;
#X obj 64 31 route present;
#X obj 64 56 sel 1;
#X obj 131 101 b;
#X obj 131 126 del 100;
#X obj 64 81 del 100;
#X msg 339 81 20;
#X obj 335 19 inlet;
#X obj 103 250 fruit/decode uint16 uint16 uint16;
#X obj 103 277 unpack f f f, f 20;
#X floatatom 172 337 5 0 0 2 setting - - 16;
#X floatatom 253 337 5 0 0 2 unlock - - 16;
#X msg 194 116 20 1 i \$1 \$2 \$3;
#X obj 325 321 bng 40 250 50 0 empty empty SAVE 5 20 0 12 #ff0400 #000000 #000000;
#X connect 2 0 5 0;
#X connect 3 0 1 1;
#X connect 4 0 1 0;
#X connect 5 0 21 0;
#X connect 6 0 12 0;
#X connect 7 0 25 0;
#X connect 10 0 11 0;
#X connect 11 0 25 0;
#X connect 13 0 14 0;
#X connect 14 0 15 0;
#X connect 15 0 18 0;
#X connect 16 0 17 0;
#X connect 17 0 4 0;
#X connect 18 0 4 0;
#X connect 19 0 25 0;
#X connect 20 0 25 0;
#X connect 21 0 22 0;
#X connect 22 0 6 0;
#X connect 22 1 23 0;
#X connect 22 2 24 0;
#X connect 25 0 1 0;
#X connect 25 0 16 0;
#X connect 26 0 3 0;
#X coords 0 -1 1 1 270 65 1 100 300;
#X restore 347 190 pd set_channel;
#X msg 347 154 1 16 24;
#X obj 377 282 fruit/receive fruit0;
#X floatatom 377 357 8 0 0 0 - - - 0;
#X obj 377 307 route dest pwm, f 21;
#X floatatom 449 356 8 0 0 0 - - - 0;
#X obj 377 332 route 50;
#X obj 449 331 route 50;
#X connect 16 0 15 0;
#X connect 17 0 19 0;
#X connect 19 0 21 0;
#X connect 19 1 22 0;
#X connect 21 0 18 0;
#X connect 22 0 20 0;
