#N canvas 1036 46 1012 581 12;
#X declare -path Fraise -path Fraise/pic;
#X obj 35 136 treuil 1 50;
#X obj 35 198 treuil 2 51;
#X obj 36 261 treuil 3 52;
#X obj 36 323 treuil 4 53;
#X obj 36 386 treuil 5 54;
#X obj 36 448 treuil 6 55;
#X obj 398 293 * 5;
#X obj 380 226 hradio 19 1 0 16 empty empty empty 0 -10 0 12 #fcfcfc #000000 #000000 0;
#X obj 398 317 * 800;
#X obj 398 412 list prepend 1;
#X obj 452 342 hradio 19 1 0 6 empty empty empty 0 -10 0 12 #fcfcfc #000000 #000000 0;
#X obj 452 366 + 1;
#X msg 398 442 \; treuil\$1-dest \$2;
#X floatatom 532 404 5 0 0 0 - - - 0;
#X obj 398 365 / 16;
#X msg 467 145 32;
#X msg 515 151 128;
#X obj 750 163 tgl 15 0 empty empty empty 17 7 0 10 #fcfcfc #000000 #000000 0 1;
#X obj 907 203 * 5;
#X obj 907 227 * 800;
#X obj 907 254 / 16;
#X obj 750 266 * 250;
#X obj 750 290 t b f, f 13;
#X msg 750 378 \; treuil\$1-dest \$2;
#X obj 750 348 list append 1;
#X obj 750 84 tgl 15 0 empty empty empty 17 7 0 10 #fcfcfc #000000 #000000 0 1;
#X obj 420 110 tgl 15 0 empty empty empty 17 7 0 10 #fcfcfc #000000 #000000 0 1;
#X obj 412 145 * 9;
#X obj 750 201 * 9;
#X obj 520 84 timer;
#X floatatom 520 108 8 0 0 0 - - - 0;
#X obj 515 55 bng 15 250 50 0 empty empty empty 17 7 0 10 #fcfcfc #000000 #000000;
#X obj 560 49 bng 15 250 50 0 empty empty empty 17 7 0 10 #fcfcfc #000000 #000000;
#X obj 750 130 metro 55000;
#X obj 600 448 bng 80 250 50 0 TREUIL_STOP TREUIL_STOP TREUILS_STOP 0 -15 0 20 #fc0400 #000000 #000000;
#X obj 747 23 r TREUIL_STOP;
#X msg 747 47 0;
#X msg 871 315 1 \, 2 \, 3 \, 4 \, 5 \, 6;
#X obj 801 449 bng 80 250 50 0 TREUIL_REWIND TREUIL_REWIND TREUILS_REWIND 0 -15 0 20 #f8fc00 #000000 #000000;
#X msg 750 318 1 \, 2 \, 3 \, 4 \, 5 \, 6;
#X msg 838 80 45000;
#X obj 37 21 declare -path Fraise -path Fraise/pic;
#X obj 33 52 pied/pied 1;
#X obj 197 52 fruit/fruit 1 fruit0 0 fwPied;
#X obj 48 549 DMXout 10;
#N canvas 62 612 526 300 test_dmx_input 0;
#X msg 132 142 200;
#X obj 307 147 fruit/receive fruit0;
#X listbox 307 197 20 0 0 0 - - - 0;
#X obj 132 108 metro 100;
#X obj 132 80 tgl 20 0 empty empty empty 0 -10 0 12 #fcfcfc #000000 #000000 0 1;
#X msg 71 121 100;
#X obj 132 187 fruit/send2 fruit0;
#X obj 307 228 bng 20 250 50 0 empty empty empty 0 -10 0 12 #fcfcfc #000000 #000000;
#X obj 459 167 print;
#X msg 57 194 120;
#X msg 236 131 121;
#X msg 239 82 122 i 1000 1001 1002 1003;
#X obj 307 172 route dmx scratchs;
#X listbox 353 221 20 0 0 0 - - - 0;
#X obj 354 248 bng 20 250 50 0 empty empty empty 0 -10 0 12 #fcfcfc #000000 #000000;
#X text 243 59 set scratchs;
#X text 236 113 get scratchs;
#X text 69 101 panic;
#X text 51 177 get reset;
#X connect 0 0 6 0;
#X connect 1 0 12 0;
#X connect 2 0 7 0;
#X connect 3 0 0 0;
#X connect 4 0 3 0;
#X connect 5 0 6 0;
#X connect 9 0 6 0;
#X connect 10 0 6 0;
#X connect 11 0 6 0;
#X connect 12 0 2 0;
#X connect 12 1 13 0;
#X connect 13 0 14 0;
#X restore 220 548 pd test_dmx_input;
#X floatatom 314 442 5 0 0 0 - - - 0;
#N canvas 80 117 587 542 test_dest 0;
#X obj 132 187 fruit/send2 fruit0;
#X obj 102 38 hradio 19 1 0 16 empty empty empty 0 -10 0 12 #fcfcfc #000000 #000000 0;
#X obj 102 62 * 250;
#X msg 132 161 30 5 i \$1;
#X msg 392 104 1;
#X msg 431 104 10;
#X obj 323 248 fruit/receive fruit0;
#X obj 323 273 route dest;
#X obj 323 298 route 50;
#X floatatom 323 323 5 0 0 0 - - - 0;
#X obj 283 381 change;
#X obj 283 406 t b b;
#X obj 283 431 timer;
#X floatatom 283 481 5 0 0 0 - - - 0;
#X obj 283 456 zexy/mavg 20;
#X msg 289 152 40 2 i \$1;
#X msg 392 154 41 2 i \$1;
#X msg 478 102 20;
#X floatatom 392 129 5 0 0 0 - - - 0;
#X msg 519 102 100;
#X msg 554 104 1000;
#X msg 63 296 31 5 i \$1;
#X msg 63 263 -1023;
#X msg 118 263 1023;
#X connect 1 0 2 0;
#X connect 2 0 15 0;
#X connect 3 0 0 0;
#X connect 4 0 18 0;
#X connect 5 0 18 0;
#X connect 6 0 7 0;
#X connect 7 0 8 0;
#X connect 8 0 9 0;
#X connect 8 0 10 0;
#X connect 10 0 11 0;
#X connect 11 0 12 0;
#X connect 11 1 12 1;
#X connect 12 0 14 0;
#X connect 14 0 13 0;
#X connect 15 0 0 0;
#X connect 16 0 0 0;
#X connect 17 0 18 0;
#X connect 18 0 16 0;
#X connect 19 0 18 0;
#X connect 20 0 18 0;
#X connect 21 0 0 0;
#X connect 22 0 21 0;
#X connect 23 0 21 0;
#X restore 364 549 pd test_dest;
#N canvas 173 530 759 482 test_dmx 0;
#X obj 820 268 s 2DMX;
#X msg 820 214 9 \$1;
#X obj 820 79 vsl 15 128 0 255 0 0 empty empty dest 0 -9 0 10 #fcfcfc #000000 #000000 0 1;
#X obj 868 79 vsl 15 128 0 255 0 0 empty empty speed 0 -9 0 10 #fcfcfc #000000 #000000 0 1;
#X msg 868 214 10 \$1;
#X obj 923 80 vsl 15 128 0 255 0 0 empty empty rewind 0 -9 0 10 #fcfcfc #000000 #000000 0 1;
#X obj 971 80 vsl 15 128 0 255 0 0 empty empty fastfw 0 -9 0 10 #fcfcfc #000000 #000000 0 1;
#X msg 923 215 11 \$1;
#X msg 971 215 12 \$1;
#X obj 377 282 fruit/receive fruit0;
#X floatatom 377 357 8 0 0 0 - - - 0;
#X obj 377 307 route dest pwm, f 21;
#X floatatom 449 356 8 0 0 0 - - - 0;
#X obj 961 273 / 2.55;
#X floatatom 961 298 5 0 0 0 - - - 0;
#X floatatom 772 216 5 0 0 0 - - - 0;
#X msg 775 156 1;
#X obj 765 32 hradio 20 1 0 8 empty empty empty 0 -10 0 12 #fcfcfc #000000 #000000 0;
#X obj 224 31 rampe 1;
#X obj 433 31 rampe 2;
#X obj 213 308 s 2DMX;
#X obj 18 30 rampe 0;
#X obj 377 332 route 50;
#X obj 449 331 route 50;
#X obj 551 389 change;
#X obj 551 414 print;
#X obj 574 347 bng 20 250 50 0 empty empty empty 0 -10 0 12 #fcfcfc #000000 #000000;
#X connect 1 0 0 0;
#X connect 2 0 1 0;
#X connect 2 0 15 0;
#X connect 3 0 4 0;
#X connect 4 0 0 0;
#X connect 5 0 7 0;
#X connect 5 0 13 0;
#X connect 6 0 8 0;
#X connect 7 0 0 0;
#X connect 8 0 0 0;
#X connect 9 0 11 0;
#X connect 11 0 22 0;
#X connect 11 1 23 0;
#X connect 13 0 14 0;
#X connect 16 0 1 0;
#X connect 17 0 2 0;
#X connect 18 0 20 0;
#X connect 19 0 20 0;
#X connect 21 0 20 0;
#X connect 22 0 10 0;
#X connect 23 0 12 0;
#X connect 23 0 24 0;
#X connect 24 0 25 0;
#X connect 26 0 25 0;
#X restore 468 547 pd test_dmx;
#N canvas 127 81 450 343 set_channel 0;
#X obj 105 269 hsl 75 40 0 127 0 0 \$0--- \$0--- empty -2 -10 0 12 #fcfcfc #ffffff #000000 0 1;
#X obj 103 171 fruit/send2 fruit0, f 32;
#X obj 103 200 fruit/receive fruit0;
#X msg 324 142 SAVE_EEPROM;
#X msg 63 124 20 101;
#X obj 103 225 route 200;
#X obj 103 250 fruit/decode uint16;
#X floatatom 103 275 5 0 0 0 - - - 24;
#X msg 194 91 1;
#X msg 194 116 20 1 i \$1;
#X text 59 102 get_chan;
#X text 191 54 set_chan;
#X msg 274 60 512;
#X obj 274 85 - 12;
#X obj 103 312 s treuil_start_dmx_chan;
#X obj 64 6 fruit/receive fruit0;
#X obj 64 31 route present;
#X obj 64 56 sel 1;
#X obj 131 101 b;
#X obj 131 126 del 100;
#X obj 64 81 del 100;
#X connect 2 0 5 0;
#X connect 3 0 1 1;
#X connect 4 0 1 0;
#X connect 5 0 6 0;
#X connect 6 0 7 0;
#X connect 7 0 14 0;
#X connect 8 0 9 0;
#X connect 9 0 1 0;
#X connect 9 0 18 0;
#X connect 12 0 13 0;
#X connect 13 0 9 0;
#X connect 15 0 16 0;
#X connect 16 0 17 0;
#X connect 17 0 20 0;
#X connect 18 0 19 0;
#X connect 19 0 4 0;
#X connect 20 0 4 0;
#X coords 0 -1 1 1 85 60 1 100 250;
#X restore 604 116 pd set_channel;
#X connect 6 0 8 0;
#X connect 7 0 6 0;
#X connect 8 0 14 0;
#X connect 9 0 12 0;
#X connect 10 0 11 0;
#X connect 11 0 9 1;
#X connect 11 0 13 0;
#X connect 14 0 9 0;
#X connect 14 0 46 0;
#X connect 15 0 6 0;
#X connect 16 0 6 0;
#X connect 17 0 28 0;
#X connect 18 0 19 0;
#X connect 19 0 20 0;
#X connect 21 0 22 0;
#X connect 22 0 39 0;
#X connect 22 1 24 1;
#X connect 24 0 23 0;
#X connect 25 0 33 0;
#X connect 26 0 27 0;
#X connect 26 0 31 0;
#X connect 27 0 7 0;
#X connect 28 0 21 0;
#X connect 29 0 30 0;
#X connect 31 0 29 0;
#X connect 32 0 29 1;
#X connect 33 0 17 0;
#X connect 35 0 36 0;
#X connect 36 0 25 0;
#X connect 39 0 24 0;
#X connect 40 0 33 1;
