#N canvas 0 0 450 382 12;
#X obj 81 63 vsl 15 128 0 255 0 0 empty empty dest 0 -9 0 10 #fcfcfc #000000 #000000 0 1;
#X obj 129 63 vsl 15 128 0 255 0 0 empty empty speed 0 -9 0 10 #fcfcfc #000000 #000000 0 1;
#X obj 184 64 vsl 15 128 0 255 0 0 empty empty rewind 0 -9 0 10 #fcfcfc #000000 #000000 0 1;
#X obj 232 64 vsl 15 128 0 255 0 0 empty empty fastfw 0 -9 0 10 #fcfcfc #000000 #000000 0 1;
#X msg 81 198 0 \$1;
#X msg 129 198 1 \$1;
#X msg 184 199 2 \$1;
#X obj 81 252 unpack f f;
#X obj 81 277 + 1, f 12;
#X obj 162 251 r treuil_start_dmx_chan;
#X obj 81 302 +, f 38;
#X obj 344 226 loadbang;
#X obj 344 251 f \$1;
#X obj 344 276 * 4;
#X obj 81 327 pack f f, f 10;
#X obj 81 352 outlet;
#X msg 232 199 3 \$1;
#X obj 27 55;
#X msg 27 98 1;
#X msg 34 152 0;
#X floatatom 25 294 5 0 0 0 - - - 0;
#X msg 27 229 20;
#X connect 0 0 4 0;
#X connect 1 0 5 0;
#X connect 2 0 6 0;
#X connect 3 0 16 0;
#X connect 4 0 7 0;
#X connect 5 0 7 0;
#X connect 6 0 7 0;
#X connect 7 0 8 0;
#X connect 7 1 14 1;
#X connect 8 0 10 0;
#X connect 9 0 8 1;
#X connect 10 0 14 0;
#X connect 11 0 12 0;
#X connect 12 0 13 0;
#X connect 13 0 10 1;
#X connect 14 0 15 0;
#X connect 16 0 7 0;
#X connect 18 0 0 0;
#X connect 19 0 0 0;
#X connect 20 0 0 0;
#X connect 21 0 0 0;
#X coords 0 -1 1 1 200 170 1 70 30;
